PathFileType	4	(X/Y/Z)	C:/Users/opensim2020/Desktop/walking_exp_matlab/subject06_walking12_straigt_04.trc	
DataRate	CameraRate	NumFrames	NumMarkers	Units	OrigDataRate	OrigDataStartFrame	OrigNumFrames	
100.00	100.00	4	48	mm	100.00	2879	181	
Frame#	Time	LFHD			RFHD			LBHD			RBHD			C7			T10			CLAV			STRN			RBAK			LSHO			LUPA			LELB			LFRM			LWRA			LWRB			LFIN			RSHO			RUPA			RELB			RFRM			RWRA			RWRB			RFIN			LASI			RASI			LPSI			RPSI			LTHI			LKNE			LTIB			LANK			LHEE			LTOE			RTHI			RKNE			RTIB			RANK			RHEE			RTOE			*39			*40			*41			*42			*43			*44			*45			*46			*47			
		X1	Y1	Z1	X2	Y2	Z2	X3	Y3	Z3	X4	Y4	Z4	X5	Y5	Z5	X6	Y6	Z6	X7	Y7	Z7	X8	Y8	Z8	X9	Y9	Z9	X10	Y10	Z10	X11	Y11	Z11	X12	Y12	Z12	X13	Y13	Z13	X14	Y14	Z14	X15	Y15	Z15	X16	Y16	Z16	X17	Y17	Z17	X18	Y18	Z18	X19	Y19	Z19	X20	Y20	Z20	X21	Y21	Z21	X22	Y22	Z22	X23	Y23	Z23	X24	Y24	Z24	X25	Y25	Z25	X26	Y26	Z26	X27	Y27	Z27	X28	Y28	Z28	X29	Y29	Z29	X30	Y30	Z30	X31	Y31	Z31	X32	Y32	Z32	X33	Y33	Z33	X34	Y34	Z34	X35	Y35	Z35	X36	Y36	Z36	X37	Y37	Z37	X38	Y38	Z38	X39	Y39	Z39	X40	Y40	Z40	X41	Y41	Z41	X42	Y42	Z42	X43	Y43	Z43	X44	Y44	Z44	X45	Y45	Z45	X46	Y46	Z46	X47	Y47	Z47	X48	Y48	Z48	

114	1.130	1522.87512	-67.28194	1668.63562	1391.39197	-59.20266	1655.01721	1531.61597	66.64533	1614.35986	1402.64807	72.98652	1606.85083	1474.90637	72.44698	1455.90588	1468.71667	108.11930	1126.82837	1469.04321	-37.10640	1378.77563	1474.69519	-76.78619	1203.71948	1397.61938	148.53633	1287.08350	1632.53711	10.74247	1410.30750	1709.39209	-8.14900	1210.57959	1725.71387	-19.39892	1098.87109	1744.39771	-75.79762	959.09692	1691.61169	-150.54761	858.18707	1739.10291	-100.08205	841.86200	1734.19507	-157.85452	773.28333	1309.65845	12.76754	1410.82507	1226.45215	60.95108	1211.66394	1219.33020	58.53695	1088.86328	1205.02734	52.75238	968.17456	1239.08215	6.08876	824.51141	1198.48560	60.14017	830.26837	1198.48010	30.99182	750.88391	1574.82629	-74.92472	968.15216	1353.96265	-68.76718	973.14197	1550.25122	84.45228	994.31879	1381.99207	83.01530	992.32770	1622.75659	-10.68007	650.59827	1593.20874	-8.74695	487.32764	1575.60535	58.23901	238.07028	1523.67810	89.26344	71.86448	1478.60303	131.28242	61.57057	1521.57190	-53.15219	39.42117	1288.11328	-99.63172	652.85260	1305.57861	-151.64873	537.76343	1311.60962	-28.28741	309.43002	1356.36975	62.57381	148.09085	1406.42358	103.14809	136.21918	1337.28479	-60.52756	60.62843	1468.50952	36.47147	1706.18311																								 
115	1.140	1522.81775	-77.33223	1668.26855	1391.29492	-68.91586	1654.51855	1531.87842	56.64882	1614.15698	1402.84412	63.27817	1606.51123	1475.33508	62.80682	1455.62402	1469.17249	98.75850	1126.56299	1469.35669	-46.60499	1378.37024	1475.31921	-86.21738	1203.22827	1398.39148	139.12097	1286.68604	1632.75208	1.07100	1410.19373	1710.43958	-20.27626	1211.10620	1727.33191	-33.91166	1099.66101	1745.69153	-94.83688	961.74738	1692.51917	-173.02658	863.78510	1739.92859	-123.14277	845.50751	1734.95422	-183.54796	779.23126	1309.94250	3.31487	1410.23035	1227.02832	53.48851	1211.37598	1219.73340	52.26148	1088.66309	1205.09375	48.63121	967.90631	1238.12549	4.66233	822.95453	1197.95898	58.67112	830.30255	1197.66150	31.75535	749.99805	1575.45850	-83.51592	967.20905	1354.55127	-78.53961	972.94214	1550.22217	75.78646	993.84845	1381.81458	73.44881	992.20245	1622.57690	-16.84283	649.83093	1593.10107	-13.44290	486.65125	1575.30664	55.90581	237.97601	1523.56433	88.92005	72.12896	1478.54272	131.31921	62.21091	1521.32178	-53.47725	39.50645	1288.79980	-111.88215	654.11664	1306.92432	-163.76823	539.16339	1312.18042	-49.30111	304.69733	1356.38452	32.40769	138.30083	1406.32568	72.23133	124.00990	1336.90845	-95.20154	57.96585	1468.54297	26.52772	1705.87659																								 
116	1.150	1522.59302	-87.04818	1667.83240	1391.19287	-78.56083	1653.89832	1532.10156	46.80263	1613.96545	1403.09888	53.66566	1606.06396	1475.64722	53.22570	1455.23938	1469.37537	89.42930	1126.15588	1469.61743	-56.14364	1377.85168	1475.89514	-95.56841	1202.66138	1399.12585	129.69473	1286.20862	1632.92981	-8.77890	1409.96704	1711.39490	-32.30376	1211.57935	1728.89429	-48.07557	1100.42603	1746.82251	-113.44509	964.41870	1693.34705	-195.04523	869.67072	1740.48413	-145.77734	849.21552	1735.51941	-208.76807	785.59290	1310.11389	-6.11627	1409.55383	1227.53760	46.22755	1211.11926	1220.01868	45.95412	1088.39929	1205.04443	44.47449	967.70062	1237.48352	3.23768	821.78760	1197.48816	57.03528	830.30408	1196.84033	32.15924	749.39087	1575.96570	-91.34531	966.04761	1355.19250	-88.35699	972.61523	1550.00159	67.21400	993.21051	1381.66736	63.87274	991.95392	1622.66455	-22.77167	649.05255	1592.88599	-18.29740	485.88684	1575.07324	53.49137	237.90784	1523.52173	88.53083	72.40736	1478.50208	131.12929	62.74721	1521.19250	-53.36798	39.32249	1289.18909	-123.30042	655.06177	1308.09119	-175.09886	540.04358	1312.46252	-70.20607	299.78149	1356.25867	1.65220	128.71338	1406.13916	40.77186	112.26762	1336.39905	-130.42651	55.82780	1468.53223	16.67950	1705.48608																								 
117	1.160	1522.41541	-96.94669	1667.31116	1391.04517	-88.22134	1653.29016	1532.15137	36.94987	1613.52979	1403.23511	44.03970	1605.51465	1475.79590	43.63178	1454.75073	1469.63367	80.04501	1125.69556	1469.80029	-65.65539	1377.20496	1476.38794	-104.97522	1201.95923	1399.79028	120.14387	1285.63574	1633.05457	-18.52741	1409.65259	1712.27783	-44.28222	1211.98450	1730.37207	-61.99278	1101.15015	1747.97559	-131.67719	967.24500	1694.02637	-216.47314	875.80463	1740.90454	-168.00459	853.27802	1735.93127	-233.48244	792.33356	1310.30273	-15.57299	1408.84668	1228.10266	38.83529	1210.91187	1220.18323	39.65119	1088.20398	1204.95276	40.20305	967.47314	1236.76196	1.60874	820.69879	1196.86890	55.32791	830.36981	1196.02087	31.78759	748.96729	1576.64941	-99.67612	964.98303	1355.76660	-98.13015	972.11951	1549.66003	58.57648	992.49396	1381.32080	54.31287	991.54266	1622.28540	-29.31504	648.42279	1592.64087	-23.21886	485.17932	1574.86951	51.03642	237.90285	1523.46887	88.19926	72.73689	1478.45642	130.66496	63.20861	1521.08911	-53.56093	39.44261	1289.59363	-134.70531	655.67169	1309.07178	-185.60402	540.38190	1312.54089	-91.40190	294.70111	1355.76453	-29.75346	119.54134	1405.96887	8.47057	100.86591	1336.43469	-165.42924	53.82437	1468.50122	6.90846	1704.98730																								 
